# xmcd
#
# Track frame offsets:
# 150
# 20405
# 40073
# 54958
# 91013
# 109653
# 135573
# 164678
#
# Disc length: 2452 seconds
#
# Revision: 0
# Processed by: cddbd v1.4PL0 Copyright (c) Steve Scherf et al.
# Submitted via: Axialis_AX_CDPlayer 2.6
#
DISCID=5a099208
DTITLE=Gary B.B. Coleman - One night stand
DYEAR=1900
DGENRE=
TTITLE0=Baby scratch my back
TTITLE1=I wrote this song for you
TTITLE2=Sitting and waiting
TTITLE3=As the years go passing by
TTITLE4=I just can't lose these blues
TTITLE5=I fell in love on a one night stand
TTITLE6=I'll take care of you
TTITLE7=Going down
EXTD=
EXTT0=
EXTT1=
EXTT2=
EXTT3=
EXTT4=
EXTT5=
EXTT6=
EXTT7=
PLAYORDER=
